<?xml version="1.0" encoding="utf-8"?>
<!-- Generator: Adobe Illustrator 23.0.1, SVG Export Plug-In . SVG Version: 6.00 Build 0)  -->
<svg version="1.1" id="Layer_1" xmlns="http://www.w3.org/2000/svg" xmlns:xlink="http://www.w3.org/1999/xlink" x="0px" y="0px"
	 viewBox="0 0 1417.32 1417.32" style="enable-background:new 0 0 1417.32 1417.32;" xml:space="preserve">
<style type="text/css">
	.st0{stroke:#000000;stroke-width:60;stroke-miterlimit:10;}
	.st1{stroke:#000000;stroke-width:68;stroke-miterlimit:10;}
</style>
<path class="st0" d="M966.44,797.61l-2.94-2.94c-6.96-6.96-18.24-6.96-25.19,0l-211.91,211.91c-11.22,11.22-30.41,3.27-30.41-12.6
	V90.95c0-9.84-7.98-17.81-17.81-17.81h-4.33c-9.84,0-17.81,7.98-17.81,17.81V989.8c0,15.87-19.19,23.82-30.41,12.6L405.98,782.77
	c-6.96-6.96-18.24-6.96-25.19,0l-3.03,3.03c-6.97,6.97-6.96,18.27,0.03,25.23l285.74,284.29c6.91,6.88,18.08,6.92,25.04,0.09
	l277.76-272.48C973.39,815.98,973.44,804.61,966.44,797.61z"/>
<path class="st1" d="M99.55,1215.46L99.55,1215.46c0,7.88,6.39,14.27,14.27,14.27h1141.8c7.88,0,14.27-6.39,14.27-14.27v0
	c0-7.88-6.39-14.27-14.27-14.27H113.83C105.94,1201.18,99.55,1207.57,99.55,1215.46z"/>
</svg>
