<svg id="Layer_1" data-name="Layer 1" xmlns="http://www.w3.org/2000/svg" viewBox="0 0 1417.32 1417.32"><defs><style>.cls-1{fill:#942e87;}</style></defs><title>search</title><path class="cls-1" d="M640.55,380.93c128.51-1.28,243.65,94.57,260,227.31,8.27,66.38-6.36,127.45-45,182.37-5.72,8.27-5.51,13.15,1.7,20.35Q941.56,894.3,1025,978.49c19.3,19.29,12.73,46.86-12.93,56.19-11.88,4.45-21.42,1.06-30.33-7.64-37.53-37.95-75.49-75.49-113.23-113.23-19.51-19.51-39.44-39-58.53-58.95-5.94-6.36-10-6.15-17-1.06-46.23,33.29-98.18,49.62-154.8,48.77C504.63,900,401.57,801.63,384,680.13c-20.57-141.65,73.16-271.21,214.39-296C613,381.56,627.83,380.08,640.55,380.93ZM445.89,641.75c-.42,106.45,86.31,194,191.27,196.15,107.51,2.33,200.18-83.55,201-193.82S752.3,445.81,643.52,445C530.08,444.12,443.35,538.27,445.89,641.75Z"/></svg>