<svg id="Layer_1" data-name="Layer 1" xmlns="http://www.w3.org/2000/svg" viewBox="0 0 786.96 788.06"><defs><style>.cls-1{fill:#942e87;}</style></defs><title>search</title><path class="cls-1" d="M626.84,314.92C781.22,313.39,919.55,428.54,939.17,588c9.94,79.74-7.64,153.11-54,219.09-6.88,9.94-6.62,15.8,2,24.46q101.26,100.13,201.51,201.26c23.19,23.18,15.29,56.3-15.54,67.51-14.26,5.35-25.73,1.27-36.43-9.17-45.09-45.6-90.69-90.7-136-136-23.44-23.44-47.38-46.88-70.31-70.83-7.13-7.64-12-7.38-20.38-1.27-55.54,40-118,59.61-186,58.59-160.49-3-284.31-121.26-305.45-267.24-24.71-170.17,87.89-325.83,257.56-355.64C593.72,315.68,611.55,313.9,626.84,314.92ZM393,628.27c-.51,127.89,103.69,233.11,229.79,235.65,129.16,2.81,240.49-100.37,241.51-232.85S761.09,392.88,630.4,391.86C494.11,390.84,389.91,504,393,628.27Z" transform="translate(-315.18 -314.63)"/></svg>